<mxfile host="app.diagrams.net" agent="Mozilla/5.0 (Windows NT 10.0; Win64; x64) AppleWebKit/537.36 (KHTML, like Gecko) Chrome/129.0.0.0 Safari/537.36" version="24.7.16">
  <diagram name="Página-1" id="Z_nqu9OnrTD-vT-NG0Id">
    <mxGraphModel grid="1" page="1" gridSize="10" guides="1" tooltips="1" connect="1" arrows="1" fold="1" pageScale="1" pageWidth="827" pageHeight="1169" math="0" shadow="0">
      <root>
        <mxCell id="0" />
        <mxCell id="1" parent="0" />
        <mxCell id="rFjbs9xcO4ylxhxAyhJR-2" value="" style="ellipse;whiteSpace=wrap;html=1;" vertex="1" parent="1">
          <mxGeometry x="130" y="180" width="40" height="40" as="geometry" />
        </mxCell>
        <mxCell id="rFjbs9xcO4ylxhxAyhJR-3" value="Inicio Cadastro" style="text;html=1;align=center;verticalAlign=middle;resizable=0;points=[];autosize=1;strokeColor=none;fillColor=none;" vertex="1" parent="1">
          <mxGeometry x="100" y="230" width="100" height="30" as="geometry" />
        </mxCell>
        <mxCell id="rFjbs9xcO4ylxhxAyhJR-4" value="SITE DE DOAÇÃO DE ALIMENTOS" style="swimlane;horizontal=0;whiteSpace=wrap;html=1;" vertex="1" parent="1">
          <mxGeometry x="220" y="40" width="660" height="845" as="geometry" />
        </mxCell>
        <mxCell id="rFjbs9xcO4ylxhxAyhJR-5" value="USUÁRIO (ESTABELECIMENTO)" style="swimlane;whiteSpace=wrap;html=1;startSize=23;" vertex="1" parent="rFjbs9xcO4ylxhxAyhJR-4">
          <mxGeometry x="20" width="640" height="280" as="geometry" />
        </mxCell>
        <mxCell id="rFjbs9xcO4ylxhxAyhJR-6" value="Enviar Formulário" style="rounded=1;whiteSpace=wrap;html=1;" vertex="1" parent="rFjbs9xcO4ylxhxAyhJR-5">
          <mxGeometry x="200" y="130" width="120" height="60" as="geometry" />
        </mxCell>
        <mxCell id="rFjbs9xcO4ylxhxAyhJR-7" value="" style="points=[[0.145,0.145,0],[0.5,0,0],[0.855,0.145,0],[1,0.5,0],[0.855,0.855,0],[0.5,1,0],[0.145,0.855,0],[0,0.5,0]];shape=mxgraph.bpmn.event;html=1;verticalLabelPosition=bottom;labelBackgroundColor=#ffffff;verticalAlign=top;align=center;perimeter=ellipsePerimeter;outlineConnect=0;aspect=fixed;outline=throwing;symbol=general;" vertex="1" parent="rFjbs9xcO4ylxhxAyhJR-5">
          <mxGeometry x="520" y="180" width="40" height="40" as="geometry" />
        </mxCell>
        <mxCell id="rFjbs9xcO4ylxhxAyhJR-8" style="edgeStyle=orthogonalEdgeStyle;rounded=0;orthogonalLoop=1;jettySize=auto;html=1;entryX=0;entryY=0.5;entryDx=0;entryDy=0;" edge="1" parent="rFjbs9xcO4ylxhxAyhJR-5" source="rFjbs9xcO4ylxhxAyhJR-9" target="rFjbs9xcO4ylxhxAyhJR-6">
          <mxGeometry relative="1" as="geometry" />
        </mxCell>
        <mxCell id="rFjbs9xcO4ylxhxAyhJR-9" value="&#xa;&lt;span style=&quot;color: rgb(0, 0, 0); font-family: Helvetica; font-size: 12px; font-style: normal; font-variant-ligatures: normal; font-variant-caps: normal; font-weight: 400; letter-spacing: normal; orphans: 2; text-align: center; text-indent: 0px; text-transform: none; widows: 2; word-spacing: 0px; -webkit-text-stroke-width: 0px; white-space: normal; background-color: rgb(251, 251, 251); text-decoration-thickness: initial; text-decoration-style: initial; text-decoration-color: initial; display: inline !important; float: none;&quot;&gt;Preencher Formulário de Cadastro&lt;/span&gt;&#xa;&#xa;" style="points=[[0.25,0,0],[0.5,0,0],[0.75,0,0],[1,0.25,0],[1,0.5,0],[1,0.75,0],[0.75,1,0],[0.5,1,0],[0.25,1,0],[0,0.75,0],[0,0.5,0],[0,0.25,0]];shape=mxgraph.bpmn.task;whiteSpace=wrap;rectStyle=rounded;size=10;html=1;container=1;expand=0;collapsible=0;taskMarker=user;" vertex="1" parent="rFjbs9xcO4ylxhxAyhJR-5">
          <mxGeometry x="20" y="130" width="110" height="60" as="geometry" />
        </mxCell>
        <mxCell id="rFjbs9xcO4ylxhxAyhJR-45" value="Fim do Processo" style="text;html=1;align=center;verticalAlign=middle;resizable=0;points=[];autosize=1;strokeColor=none;fillColor=none;" vertex="1" parent="rFjbs9xcO4ylxhxAyhJR-5">
          <mxGeometry x="477" y="150" width="110" height="30" as="geometry" />
        </mxCell>
        <mxCell id="rFjbs9xcO4ylxhxAyhJR-10" value="SISTEMA" style="swimlane;whiteSpace=wrap;html=1;" vertex="1" parent="rFjbs9xcO4ylxhxAyhJR-4">
          <mxGeometry x="20" y="280" width="640" height="280" as="geometry" />
        </mxCell>
        <mxCell id="rFjbs9xcO4ylxhxAyhJR-13" style="edgeStyle=orthogonalEdgeStyle;rounded=0;orthogonalLoop=1;jettySize=auto;html=1;entryX=0;entryY=0.5;entryDx=0;entryDy=0;" edge="1" parent="rFjbs9xcO4ylxhxAyhJR-10" source="rFjbs9xcO4ylxhxAyhJR-14" target="rFjbs9xcO4ylxhxAyhJR-20">
          <mxGeometry relative="1" as="geometry" />
        </mxCell>
        <mxCell id="D7_PCosMxUKBrwE9PARA-8" style="edgeStyle=orthogonalEdgeStyle;rounded=0;orthogonalLoop=1;jettySize=auto;html=1;" edge="1" parent="rFjbs9xcO4ylxhxAyhJR-10" source="rFjbs9xcO4ylxhxAyhJR-14" target="D7_PCosMxUKBrwE9PARA-7">
          <mxGeometry relative="1" as="geometry" />
        </mxCell>
        <mxCell id="rFjbs9xcO4ylxhxAyhJR-14" value="" style="points=[[0.25,0.25,0],[0.5,0,0],[0.75,0.25,0],[1,0.5,0],[0.75,0.75,0],[0.5,1,0],[0.25,0.75,0],[0,0.5,0]];shape=mxgraph.bpmn.gateway2;html=1;verticalLabelPosition=bottom;labelBackgroundColor=#ffffff;verticalAlign=top;align=center;perimeter=rhombusPerimeter;outlineConnect=0;outline=none;symbol=none;gwType=exclusive;" vertex="1" parent="rFjbs9xcO4ylxhxAyhJR-10">
          <mxGeometry x="170" y="115" width="50" height="50" as="geometry" />
        </mxCell>
        <mxCell id="rFjbs9xcO4ylxhxAyhJR-15" value="Informações Válidas?" style="text;html=1;align=center;verticalAlign=middle;resizable=0;points=[];autosize=1;strokeColor=none;fillColor=none;" vertex="1" parent="rFjbs9xcO4ylxhxAyhJR-10">
          <mxGeometry x="125" y="170" width="140" height="30" as="geometry" />
        </mxCell>
        <mxCell id="rFjbs9xcO4ylxhxAyhJR-16" style="edgeStyle=orthogonalEdgeStyle;rounded=0;orthogonalLoop=1;jettySize=auto;html=1;entryX=0;entryY=0.5;entryDx=0;entryDy=0;entryPerimeter=0;" edge="1" parent="rFjbs9xcO4ylxhxAyhJR-10" target="rFjbs9xcO4ylxhxAyhJR-14">
          <mxGeometry relative="1" as="geometry">
            <mxPoint x="140.00000000000023" y="140.0769230769231" as="sourcePoint" />
          </mxGeometry>
        </mxCell>
        <mxCell id="rFjbs9xcO4ylxhxAyhJR-18" value="Não" style="text;html=1;align=center;verticalAlign=middle;resizable=0;points=[];autosize=1;strokeColor=none;fillColor=none;" vertex="1" parent="rFjbs9xcO4ylxhxAyhJR-10">
          <mxGeometry x="265" y="90" width="50" height="30" as="geometry" />
        </mxCell>
        <mxCell id="rFjbs9xcO4ylxhxAyhJR-19" style="edgeStyle=orthogonalEdgeStyle;rounded=0;orthogonalLoop=1;jettySize=auto;html=1;entryX=0;entryY=0.5;entryDx=0;entryDy=0;" edge="1" parent="rFjbs9xcO4ylxhxAyhJR-10" source="rFjbs9xcO4ylxhxAyhJR-20" target="rFjbs9xcO4ylxhxAyhJR-22">
          <mxGeometry relative="1" as="geometry" />
        </mxCell>
        <mxCell id="rFjbs9xcO4ylxhxAyhJR-20" value="Criar Registro no Banco de Dados" style="rounded=1;whiteSpace=wrap;html=1;" vertex="1" parent="rFjbs9xcO4ylxhxAyhJR-10">
          <mxGeometry x="310" y="180" width="120" height="60" as="geometry" />
        </mxCell>
        <mxCell id="rFjbs9xcO4ylxhxAyhJR-21" value="Sim" style="text;html=1;align=center;verticalAlign=middle;resizable=0;points=[];autosize=1;strokeColor=none;fillColor=none;" vertex="1" parent="rFjbs9xcO4ylxhxAyhJR-10">
          <mxGeometry x="265" y="170" width="40" height="30" as="geometry" />
        </mxCell>
        <mxCell id="rFjbs9xcO4ylxhxAyhJR-22" value="Notificar Administração" style="rounded=1;whiteSpace=wrap;html=1;" vertex="1" parent="rFjbs9xcO4ylxhxAyhJR-10">
          <mxGeometry x="480" y="180" width="120" height="60" as="geometry" />
        </mxCell>
        <mxCell id="D7_PCosMxUKBrwE9PARA-7" value="Retornar ao Usuário com erro" style="points=[[0.25,0,0],[0.5,0,0],[0.75,0,0],[1,0.25,0],[1,0.5,0],[1,0.75,0],[0.75,1,0],[0.5,1,0],[0.25,1,0],[0,0.75,0],[0,0.5,0],[0,0.25,0]];shape=mxgraph.bpmn.task;whiteSpace=wrap;rectStyle=rounded;size=10;html=1;container=1;expand=0;collapsible=0;taskMarker=send;" vertex="1" parent="rFjbs9xcO4ylxhxAyhJR-10">
          <mxGeometry x="310" y="40" width="120" height="80" as="geometry" />
        </mxCell>
        <mxCell id="D7_PCosMxUKBrwE9PARA-9" value="Validar Informações" style="points=[[0.25,0,0],[0.5,0,0],[0.75,0,0],[1,0.25,0],[1,0.5,0],[1,0.75,0],[0.75,1,0],[0.5,1,0],[0.25,1,0],[0,0.75,0],[0,0.5,0],[0,0.25,0]];shape=mxgraph.bpmn.task;whiteSpace=wrap;rectStyle=rounded;size=10;html=1;container=1;expand=0;collapsible=0;taskMarker=manual;" vertex="1" parent="rFjbs9xcO4ylxhxAyhJR-10">
          <mxGeometry x="30" y="110" width="120" height="80" as="geometry" />
        </mxCell>
        <mxCell id="rFjbs9xcO4ylxhxAyhJR-23" value="ADMINISTRAÇÃO" style="swimlane;whiteSpace=wrap;html=1;" vertex="1" parent="rFjbs9xcO4ylxhxAyhJR-4">
          <mxGeometry x="20" y="560" width="640" height="285" as="geometry" />
        </mxCell>
        <mxCell id="rFjbs9xcO4ylxhxAyhJR-25" style="edgeStyle=orthogonalEdgeStyle;rounded=0;orthogonalLoop=1;jettySize=auto;html=1;entryX=0;entryY=0.5;entryDx=0;entryDy=0;" edge="1" parent="rFjbs9xcO4ylxhxAyhJR-23" source="rFjbs9xcO4ylxhxAyhJR-27" target="rFjbs9xcO4ylxhxAyhJR-31">
          <mxGeometry relative="1" as="geometry" />
        </mxCell>
        <mxCell id="rFjbs9xcO4ylxhxAyhJR-26" style="edgeStyle=orthogonalEdgeStyle;rounded=0;orthogonalLoop=1;jettySize=auto;html=1;entryX=0;entryY=0.5;entryDx=0;entryDy=0;" edge="1" parent="rFjbs9xcO4ylxhxAyhJR-23" source="rFjbs9xcO4ylxhxAyhJR-27" target="rFjbs9xcO4ylxhxAyhJR-33">
          <mxGeometry relative="1" as="geometry" />
        </mxCell>
        <mxCell id="rFjbs9xcO4ylxhxAyhJR-27" value="" style="points=[[0.25,0.25,0],[0.5,0,0],[0.75,0.25,0],[1,0.5,0],[0.75,0.75,0],[0.5,1,0],[0.25,0.75,0],[0,0.5,0]];shape=mxgraph.bpmn.gateway2;html=1;verticalLabelPosition=bottom;labelBackgroundColor=#ffffff;verticalAlign=top;align=center;perimeter=rhombusPerimeter;outlineConnect=0;outline=none;symbol=none;gwType=exclusive;" vertex="1" parent="rFjbs9xcO4ylxhxAyhJR-23">
          <mxGeometry x="170" y="125" width="50" height="50" as="geometry" />
        </mxCell>
        <mxCell id="rFjbs9xcO4ylxhxAyhJR-28" value="Cadastro aprovado?" style="text;html=1;align=center;verticalAlign=middle;resizable=0;points=[];autosize=1;strokeColor=none;fillColor=none;" vertex="1" parent="rFjbs9xcO4ylxhxAyhJR-23">
          <mxGeometry x="130" y="190" width="130" height="30" as="geometry" />
        </mxCell>
        <mxCell id="rFjbs9xcO4ylxhxAyhJR-29" style="edgeStyle=orthogonalEdgeStyle;rounded=0;orthogonalLoop=1;jettySize=auto;html=1;entryX=0;entryY=0.5;entryDx=0;entryDy=0;entryPerimeter=0;" edge="1" parent="rFjbs9xcO4ylxhxAyhJR-23" target="rFjbs9xcO4ylxhxAyhJR-27">
          <mxGeometry relative="1" as="geometry">
            <mxPoint x="140.00000000000023" y="150.0769230769231" as="sourcePoint" />
          </mxGeometry>
        </mxCell>
        <mxCell id="rFjbs9xcO4ylxhxAyhJR-30" style="edgeStyle=orthogonalEdgeStyle;rounded=0;orthogonalLoop=1;jettySize=auto;html=1;entryX=0;entryY=0.5;entryDx=0;entryDy=0;" edge="1" parent="rFjbs9xcO4ylxhxAyhJR-23" source="rFjbs9xcO4ylxhxAyhJR-31">
          <mxGeometry relative="1" as="geometry">
            <mxPoint x="480" y="220" as="targetPoint" />
          </mxGeometry>
        </mxCell>
        <mxCell id="rFjbs9xcO4ylxhxAyhJR-31" value="Atualizar Status para &quot;Aprovado&quot;" style="rounded=1;whiteSpace=wrap;html=1;" vertex="1" parent="rFjbs9xcO4ylxhxAyhJR-23">
          <mxGeometry x="300" y="190" width="120" height="60" as="geometry" />
        </mxCell>
        <mxCell id="rFjbs9xcO4ylxhxAyhJR-32" style="edgeStyle=orthogonalEdgeStyle;rounded=0;orthogonalLoop=1;jettySize=auto;html=1;entryX=0;entryY=0.5;entryDx=0;entryDy=0;" edge="1" parent="rFjbs9xcO4ylxhxAyhJR-23" source="rFjbs9xcO4ylxhxAyhJR-33">
          <mxGeometry relative="1" as="geometry">
            <mxPoint x="490" y="90" as="targetPoint" />
          </mxGeometry>
        </mxCell>
        <mxCell id="rFjbs9xcO4ylxhxAyhJR-33" value="Atualizar Status para &quot;Reprovado&quot;" style="rounded=1;whiteSpace=wrap;html=1;" vertex="1" parent="rFjbs9xcO4ylxhxAyhJR-23">
          <mxGeometry x="300" y="60" width="120" height="60" as="geometry" />
        </mxCell>
        <mxCell id="rFjbs9xcO4ylxhxAyhJR-34" value="Não" style="text;html=1;align=center;verticalAlign=middle;resizable=0;points=[];autosize=1;strokeColor=none;fillColor=none;" vertex="1" parent="rFjbs9xcO4ylxhxAyhJR-23">
          <mxGeometry x="259" y="60" width="50" height="30" as="geometry" />
        </mxCell>
        <mxCell id="rFjbs9xcO4ylxhxAyhJR-41" value="Sim" style="text;html=1;align=center;verticalAlign=middle;resizable=0;points=[];autosize=1;strokeColor=none;fillColor=none;" vertex="1" parent="rFjbs9xcO4ylxhxAyhJR-23">
          <mxGeometry x="260" y="220" width="40" height="30" as="geometry" />
        </mxCell>
        <mxCell id="D7_PCosMxUKBrwE9PARA-1" value="&lt;span style=&quot;text-wrap: nowrap;&quot;&gt;Enviar e-mail de&amp;nbsp;&lt;/span&gt;&lt;div style=&quot;text-wrap: nowrap;&quot;&gt;justificativa&lt;/div&gt;" style="points=[[0.25,0,0],[0.5,0,0],[0.75,0,0],[1,0.25,0],[1,0.5,0],[1,0.75,0],[0.75,1,0],[0.5,1,0],[0.25,1,0],[0,0.75,0],[0,0.5,0],[0,0.25,0]];shape=mxgraph.bpmn.task;whiteSpace=wrap;rectStyle=rounded;size=10;html=1;container=1;expand=0;collapsible=0;taskMarker=send;" vertex="1" parent="rFjbs9xcO4ylxhxAyhJR-23">
          <mxGeometry x="490" y="50" width="120" height="80" as="geometry" />
        </mxCell>
        <mxCell id="D7_PCosMxUKBrwE9PARA-2" value="&lt;span style=&quot;text-wrap: nowrap;&quot;&gt;Enviar e-mail de&amp;nbsp;&lt;/span&gt;&lt;div style=&quot;text-wrap: nowrap;&quot;&gt;confirmação&lt;/div&gt;" style="points=[[0.25,0,0],[0.5,0,0],[0.75,0,0],[1,0.25,0],[1,0.5,0],[1,0.75,0],[0.75,1,0],[0.5,1,0],[0.25,1,0],[0,0.75,0],[0,0.5,0],[0,0.25,0]];shape=mxgraph.bpmn.task;whiteSpace=wrap;rectStyle=rounded;size=10;html=1;container=1;expand=0;collapsible=0;taskMarker=send;" vertex="1" parent="rFjbs9xcO4ylxhxAyhJR-23">
          <mxGeometry x="480" y="180" width="120" height="80" as="geometry" />
        </mxCell>
        <mxCell id="D7_PCosMxUKBrwE9PARA-10" value="Revisar Cadastro" style="points=[[0.25,0,0],[0.5,0,0],[0.75,0,0],[1,0.25,0],[1,0.5,0],[1,0.75,0],[0.75,1,0],[0.5,1,0],[0.25,1,0],[0,0.75,0],[0,0.5,0],[0,0.25,0]];shape=mxgraph.bpmn.task;whiteSpace=wrap;rectStyle=rounded;size=10;html=1;container=1;expand=0;collapsible=0;taskMarker=manual;" vertex="1" parent="rFjbs9xcO4ylxhxAyhJR-23">
          <mxGeometry x="20" y="120" width="120" height="80" as="geometry" />
        </mxCell>
        <mxCell id="rFjbs9xcO4ylxhxAyhJR-37" style="edgeStyle=orthogonalEdgeStyle;rounded=0;orthogonalLoop=1;jettySize=auto;html=1;entryX=0.5;entryY=0;entryDx=0;entryDy=0;" edge="1" parent="rFjbs9xcO4ylxhxAyhJR-4" source="rFjbs9xcO4ylxhxAyhJR-6">
          <mxGeometry relative="1" as="geometry">
            <Array as="points">
              <mxPoint x="280" y="240" />
              <mxPoint x="100" y="240" />
            </Array>
            <mxPoint x="100.00000000000023" y="390" as="targetPoint" />
          </mxGeometry>
        </mxCell>
        <mxCell id="rFjbs9xcO4ylxhxAyhJR-38" style="edgeStyle=orthogonalEdgeStyle;rounded=0;orthogonalLoop=1;jettySize=auto;html=1;entryX=0.5;entryY=0;entryDx=0;entryDy=0;" edge="1" parent="rFjbs9xcO4ylxhxAyhJR-4" source="rFjbs9xcO4ylxhxAyhJR-22">
          <mxGeometry relative="1" as="geometry">
            <Array as="points">
              <mxPoint x="560" y="600" />
              <mxPoint x="100" y="600" />
            </Array>
            <mxPoint x="100.00000000000023" y="680" as="targetPoint" />
          </mxGeometry>
        </mxCell>
        <mxCell id="rFjbs9xcO4ylxhxAyhJR-39" style="edgeStyle=orthogonalEdgeStyle;rounded=0;orthogonalLoop=1;jettySize=auto;html=1;exitX=1;exitY=0.5;exitDx=0;exitDy=0;" edge="1" parent="rFjbs9xcO4ylxhxAyhJR-4">
          <mxGeometry relative="1" as="geometry">
            <Array as="points">
              <mxPoint x="630" y="70" />
              <mxPoint x="90" y="70" />
            </Array>
            <mxPoint x="90" y="130" as="targetPoint" />
            <mxPoint x="630" y="650" as="sourcePoint" />
          </mxGeometry>
        </mxCell>
        <mxCell id="rFjbs9xcO4ylxhxAyhJR-40" style="edgeStyle=orthogonalEdgeStyle;rounded=0;orthogonalLoop=1;jettySize=auto;html=1;entryX=0.5;entryY=1;entryDx=0;entryDy=0;entryPerimeter=0;" edge="1" parent="rFjbs9xcO4ylxhxAyhJR-4" target="rFjbs9xcO4ylxhxAyhJR-7">
          <mxGeometry relative="1" as="geometry">
            <mxPoint x="450.0000000000002" y="360.0769230769231" as="sourcePoint" />
          </mxGeometry>
        </mxCell>
        <mxCell id="rFjbs9xcO4ylxhxAyhJR-42" value="" style="points=[[0.145,0.145,0],[0.5,0,0],[0.855,0.145,0],[1,0.5,0],[0.855,0.855,0],[0.5,1,0],[0.145,0.855,0],[0,0.5,0]];shape=mxgraph.bpmn.event;html=1;verticalLabelPosition=bottom;labelBackgroundColor=#ffffff;verticalAlign=top;align=center;perimeter=ellipsePerimeter;outlineConnect=0;aspect=fixed;outline=throwing;symbol=general;" vertex="1" parent="1">
          <mxGeometry x="920" y="795" width="50" height="50" as="geometry" />
        </mxCell>
        <mxCell id="rFjbs9xcO4ylxhxAyhJR-44" value="Fim do Processo" style="text;html=1;align=center;verticalAlign=middle;resizable=0;points=[];autosize=1;strokeColor=none;fillColor=none;" vertex="1" parent="1">
          <mxGeometry x="890" y="855" width="110" height="30" as="geometry" />
        </mxCell>
        <mxCell id="rFjbs9xcO4ylxhxAyhJR-46" style="edgeStyle=orthogonalEdgeStyle;rounded=0;orthogonalLoop=1;jettySize=auto;html=1;entryX=0;entryY=0.5;entryDx=0;entryDy=0;entryPerimeter=0;" edge="1" parent="1" target="rFjbs9xcO4ylxhxAyhJR-42">
          <mxGeometry relative="1" as="geometry">
            <mxPoint x="840" y="820" as="sourcePoint" />
          </mxGeometry>
        </mxCell>
        <mxCell id="rFjbs9xcO4ylxhxAyhJR-48" style="edgeStyle=orthogonalEdgeStyle;rounded=0;orthogonalLoop=1;jettySize=auto;html=1;entryX=0;entryY=0.5;entryDx=0;entryDy=0;entryPerimeter=0;" edge="1" parent="1" source="rFjbs9xcO4ylxhxAyhJR-2" target="rFjbs9xcO4ylxhxAyhJR-9">
          <mxGeometry relative="1" as="geometry" />
        </mxCell>
      </root>
    </mxGraphModel>
  </diagram>
</mxfile>
